<svg version="1.1" viewBox="0.0 0.0 737.9133858267717 108.49343832020998" fill="none" stroke="none" stroke-linecap="square" stroke-miterlimit="10" xmlns:xlink="http://www.w3.org/1999/xlink" xmlns="http://www.w3.org/2000/svg"><clipPath id="p.0"><path d="m0 0l737.9134 0l0 108.49344l-737.9134 0l0 -108.49344z" clip-rule="nonzero"/></clipPath><g clip-path="url(#p.0)"><path fill="#000000" fill-opacity="0.0" d="m0 0l737.9134 0l0 108.49344l-737.9134 0z" fill-rule="evenodd"/><path fill="#000000" d="m21.22432 133.31442c-86.21112 -18.445992 116.944275 -123.95003 187.6536 -132.27344c70.709305 -8.323413 150.39116 63.886974 236.60228 82.332954c86.21115 18.445984 351.37375 20.019539 280.66446 28.342949c-70.70935 8.32341 -618.7092 40.043518 -704.92035 21.597534z" fill-rule="evenodd"/><path stroke="#000000" stroke-width="1.0" stroke-linejoin="round" stroke-linecap="butt" d="m21.22432 133.31442c-86.21112 -18.445992 116.944275 -123.95003 187.6536 -132.27344c70.709305 -8.323413 150.39116 63.886974 236.60228 82.332954c86.21115 18.445984 351.37375 20.019539 280.66446 28.342949c-70.70935 8.32341 -618.7092 40.043518 -704.92035 21.597534z" fill-rule="evenodd"/></g></svg>